<svg width="192" height="23" viewBox="0 0 192 23" fill="none" xmlns="http://www.w3.org/2000/svg">
<g clip-path="url(#clip0_209_23)">
<path d="M192 14.1225C192.012 12.8628 191.788 11.6118 191.34 10.4343C190.21 7.54342 187.677 5.7751 184.32 5.7751H184.27C184.05 5.7751 183.83 5.78608 183.61 5.80146C180.618 6.02112 178.355 7.60493 177.278 10.096C176.545 11.5349 176.245 13.1551 176.414 14.7608C176.583 16.3665 177.213 17.8889 178.23 19.1441C179.404 20.7192 181.152 21.7231 183.287 21.9647C183.597 22.0033 183.909 22.023 184.221 22.024H184.313C184.41 22.024 184.505 22.024 184.602 22.013H184.63C187.592 21.9032 190.256 20.2666 191.358 17.8195L191.699 16.8069H187.961C187.361 17.8788 185.892 18.595 184.305 18.595C181.937 18.595 180.378 17.2242 180.378 15.1659H191.978L192 14.1225ZM180.371 12.3344C180.371 10.4562 181.928 9.20193 184.296 9.20193C186.664 9.20193 188.223 10.4562 188.223 12.3344H180.371Z" fill="black"/>
<path d="M66.6017 5.7751C71.397 5.7751 74.5741 9.02399 74.5741 13.8831C74.5741 18.7421 71.397 22.024 66.6017 22.024C61.8065 22.024 58.6228 18.7729 58.6228 13.8831C58.6228 8.99324 61.8043 5.7751 66.6017 5.7751ZM66.6017 18.595C69.1786 18.595 70.9177 16.7168 70.9177 13.8831C70.9177 11.0823 69.1786 9.20412 66.6017 9.20412C64.0249 9.20412 62.2858 11.0823 62.2858 13.8831C62.2858 16.7278 64.0227 18.595 66.6017 18.595Z" fill="black"/>
<path d="M159.031 0H155.493V4.20007H159.031V0Z" fill="black"/>
<path d="M159.031 6.4978H155.493V21.4704H159.031V6.4978Z" fill="black"/>
<path d="M148.838 7.02721H152.703V4.19128H148.838V0H145.428V4.19128H142.583V7.02721H147.86L145.441 8.51436V16.7278C145.441 20.2315 147.73 21.4748 149.689 21.4748H152.488V18.5444H150.307C150.126 18.5576 149.945 18.5333 149.774 18.4732C149.603 18.4131 149.446 18.3185 149.313 18.1952C148.832 17.7141 148.838 16.82 148.843 16.2862L148.838 7.02721Z" fill="black"/>
<path d="M3.83648 8.63079H16.0962V12.1784H3.83648V17.9228H17.145V21.4704H-0.00457764V0H17.145V3.54765H3.83648V8.63079Z" fill="black"/>
<path d="M43.8214 18.6257C45.8596 18.6257 47.2382 17.9382 47.2382 16.8947C47.2382 13.7359 37.0474 17.4022 37.287 10.4255C37.3772 7.62251 39.9848 5.7751 43.8214 5.7751C47.7175 5.7751 50.3251 8.09919 50.3251 11.6183H46.9084C46.9084 10.1575 45.6793 9.17337 43.8522 9.17337C42.1131 9.17337 40.9434 9.76868 40.9434 10.6649C40.9434 14.1225 50.8945 10.1575 50.8945 17.1034C50.8945 20.0558 48.078 22.024 43.8588 22.024C39.6396 22.024 36.7769 19.5835 36.7769 15.9414H40.1937C40.1937 17.5515 41.6338 18.6257 43.8214 18.6257Z" fill="black"/>
<path d="M86.6821 18.4566C89.8592 18.4566 92.2865 16.7344 92.768 14.1467H96.5739C95.734 18.8739 91.7786 22.024 86.6799 22.024C80.5061 22.024 76.3704 17.5647 76.3704 10.9088C76.3704 4.36921 80.5061 0 86.6799 0C91.8665 0 95.8219 3.00287 96.5739 7.49071H92.768C92.3282 5.14245 89.8899 3.56742 86.6821 3.56742C82.7861 3.56742 80.1785 6.50879 80.1785 10.9088C80.1697 15.4251 82.7861 18.4566 86.6821 18.4566Z" fill="black"/>
<path d="M56.3912 0H52.8535V4.20007H56.3912V0Z" fill="black"/>
<path d="M56.3912 6.5022H52.8535V21.4199H56.3912V6.5022Z" fill="black"/>
<path d="M172.496 6.4978L169.05 17.5779L168.749 18.5884L168.45 17.5779L165.003 6.4978H161.318L166.172 21.4726H171.328L176.183 6.4978H172.496Z" fill="black"/>
<path d="M151.556 14.575H150.955L151.257 15.5833L151.556 14.575Z" fill="black"/>
<path d="M118.035 5.7751C117.815 5.7751 117.622 5.78608 117.417 5.80146C117.637 5.78608 117.857 5.77729 118.077 5.7751H118.035Z" fill="black"/>
<path d="M125.798 14.1225C125.811 12.8635 125.587 11.6132 125.139 10.4365C124.009 7.54342 121.476 5.7751 118.119 5.7751H118.068C117.848 5.7751 117.628 5.78608 117.408 5.80146C114.416 6.02112 112.154 7.60493 111.078 10.096C110.343 11.5339 110.041 13.1541 110.209 14.76C110.377 16.366 111.007 17.8889 112.024 19.1441C113.196 20.7192 114.944 21.7231 117.092 21.9647C117.402 22.0034 117.714 22.0232 118.026 22.024H118.116C118.213 22.024 118.308 22.024 118.404 22.013H118.433C121.395 21.9032 124.059 20.2666 125.161 17.8195L125.504 16.8069H121.766C121.166 17.8788 119.699 18.595 118.11 18.595C115.742 18.595 114.183 17.2242 114.183 15.1659H125.783L125.798 14.1225ZM114.17 12.3344C114.17 10.4562 115.726 9.20412 118.094 9.20412C120.462 9.20412 122.021 10.4562 122.021 12.3344H114.17Z" fill="black"/>
<path d="M105.716 6.5022C104.427 6.5022 103.139 7.16121 102.57 8.14972L102.508 8.30129V6.5022H98.9726V21.4748H102.508V15.3658C102.508 12.1038 104.047 9.94661 106.316 9.94661H109.192V6.5022H105.716Z" fill="black"/>
<path d="M134.839 5.7751C131.185 5.7751 128.43 7.80264 127.922 10.8275H131.574C131.904 9.87192 133.192 9.21511 134.839 9.21511C136.787 9.21511 138.104 9.99274 138.104 11.1548V11.9302L133.852 12.4376C128.34 13.0967 127.291 15.3307 127.291 17.3297C127.291 20.1634 129.51 22.0438 132.863 22.0438C135.169 22.0438 137.26 20.9696 138.014 19.3594H138.074V21.5034H141.246V11.0757C141.209 7.89271 138.654 5.7751 134.839 5.7751ZM134.54 18.8718C132.383 19.1397 130.945 18.4522 130.945 17.1693C130.945 16.2753 131.515 15.3505 133.942 15.0232L138.074 14.4257V15.9172C138.074 17.4395 136.675 18.6323 134.54 18.8718Z" fill="black"/>
<path d="M34.3496 12.4091C34.3496 8.41332 31.8322 5.76192 28.0856 5.76192C27.1745 5.77696 26.2796 6.00588 25.4734 6.43022C24.6671 6.85455 23.972 7.46239 23.4443 8.20463L23.3849 8.31885V6.5615H19.8429V21.466H23.3805V13.8106C23.3805 11.0384 25.0273 9.19753 27.5162 9.19753C29.495 9.19753 30.8142 10.4804 30.8142 12.3871L30.845 21.4792H34.3826L34.3496 12.4091Z" fill="black"/>
</g>
<defs>
<clipPath id="clip0_209_23">
<rect width="192" height="22.0328" fill="white"/>
</clipPath>
</defs>
</svg>
