<svg width="231" height="27" viewBox="0 0 231 27" fill="none" xmlns="http://www.w3.org/2000/svg">
<g clip-path="url(#clip0_354_43)">
<path d="M231 17.0895C231.015 15.5739 230.746 14.0689 230.206 12.6521C228.847 9.17403 225.799 7.04651 221.76 7.04651H221.699C221.435 7.04651 221.17 7.05972 220.906 7.07822C217.306 7.34251 214.584 9.24803 213.287 12.2451C212.406 13.9763 212.044 15.9256 212.248 17.8575C212.451 19.7893 213.21 21.621 214.433 23.1311C215.845 25.0261 217.948 26.2339 220.517 26.5246C220.89 26.571 221.265 26.5948 221.641 26.596H221.752C221.869 26.596 221.982 26.596 222.099 26.5828H222.133C225.696 26.4506 228.902 24.4817 230.228 21.5375L230.638 20.3191H226.141C225.419 21.6088 223.652 22.4704 221.742 22.4704C218.893 22.4704 217.017 20.8213 217.017 18.3449H230.974L231 17.0895ZM217.009 14.9382C217.009 12.6785 218.882 11.1694 221.731 11.1694C224.58 11.1694 226.455 12.6785 226.455 14.9382H217.009Z" fill="white"/>
<path d="M80.1302 7.04651C85.8995 7.04651 89.7219 10.9553 89.7219 16.8014C89.7219 22.6475 85.8995 26.596 80.1302 26.596C74.3609 26.596 70.5306 22.6845 70.5306 16.8014C70.5306 10.9183 74.3583 7.04651 80.1302 7.04651ZM80.1302 22.4704C83.2305 22.4704 85.3229 20.2107 85.3229 16.8014C85.3229 13.4317 83.2305 11.1721 80.1302 11.1721C77.03 11.1721 74.9376 13.4317 74.9376 16.8014C74.9376 20.224 77.0273 22.4704 80.1302 22.4704Z" fill="white"/>
<path d="M191.334 0.0983887H187.078V5.1516H191.334V0.0983887Z" fill="white"/>
<path d="M191.334 7.91602H187.078V25.93H191.334V7.91602Z" fill="white"/>
<path d="M179.071 8.553H183.721V5.14102H179.071V0.0983887H174.968V5.14102H171.545V8.553H177.894L174.984 10.3422V20.224C174.984 24.4394 177.738 25.9353 180.095 25.9353H183.462V22.4097H180.838C180.62 22.4255 180.402 22.3963 180.196 22.324C179.991 22.2517 179.802 22.1378 179.642 21.9895C179.063 21.4107 179.071 20.335 179.076 19.6928L179.071 8.553Z" fill="white"/>
<path d="M4.61468 10.4823H19.3647V14.7506H4.61468V21.6617H20.6264V25.93H-0.0065918V0.0983887H20.6264V4.36666H4.61468V10.4823Z" fill="white"/>
<path d="M52.7227 22.5074C55.1748 22.5074 56.8334 21.6802 56.8334 20.4248C56.8334 16.6243 44.5726 21.0353 44.8609 12.6415C44.9694 9.26918 48.1067 7.04651 52.7227 7.04651C57.4101 7.04651 60.5473 9.84268 60.5473 14.0766H56.4366C56.4366 12.3191 54.9579 11.1351 52.7597 11.1351C50.6673 11.1351 49.26 11.8513 49.26 12.9296C49.26 17.0895 61.2325 12.3191 61.2325 20.6759C61.2325 24.2279 57.8439 26.596 52.7676 26.596C47.6914 26.596 44.2473 23.6597 44.2473 19.2778H48.358C48.358 21.215 50.0906 22.5074 52.7227 22.5074Z" fill="white"/>
<path d="M104.289 22.304C108.112 22.304 111.032 20.2319 111.611 17.1186H116.19C115.18 22.8061 110.421 26.596 104.287 26.596C96.8588 26.596 91.8831 21.2309 91.8831 13.223C91.8831 5.3551 96.8588 0.0983887 104.287 0.0983887C110.527 0.0983887 115.286 3.71122 116.19 9.11065H111.611C111.082 6.2854 108.149 4.39044 104.289 4.39044C99.602 4.39044 96.4647 7.92928 96.4647 13.223C96.4541 18.6568 99.602 22.304 104.289 22.304Z" fill="white"/>
<path d="M67.8456 0.0983887H63.5894V5.1516H67.8456V0.0983887Z" fill="white"/>
<path d="M67.8456 7.92139H63.5894V25.8693H67.8456V7.92139Z" fill="white"/>
<path d="M207.534 7.91602L203.389 21.2468L203.026 22.4625L202.667 21.2468L198.519 7.91602H194.085L199.926 25.9326H206.129L211.97 7.91602H207.534Z" fill="white"/>
<path d="M182.34 17.634H181.618L181.981 18.8471L182.34 17.634Z" fill="white"/>
<path d="M142.011 7.04651C141.746 7.04651 141.514 7.05972 141.268 7.07822C141.532 7.05972 141.797 7.04915 142.061 7.04651H142.011Z" fill="white"/>
<path d="M151.351 17.0895C151.366 15.5747 151.097 14.0705 150.558 12.6547C149.198 9.17403 146.151 7.04651 142.111 7.04651H142.051C141.786 7.04651 141.521 7.05972 141.257 7.07822C137.657 7.34251 134.935 9.24803 133.641 12.2451C132.757 13.9751 132.393 15.9243 132.595 17.8565C132.797 19.7887 133.556 21.6209 134.779 23.1311C136.189 25.0261 138.292 26.2339 140.876 26.5246C141.249 26.5712 141.624 26.595 142 26.596H142.109C142.225 26.596 142.339 26.596 142.455 26.5828H142.49C146.053 26.4506 149.259 24.4817 150.584 21.5375L150.997 20.3191H146.5C145.778 21.6088 144.013 22.4704 142.101 22.4704C139.252 22.4704 137.376 20.8213 137.376 18.3449H151.333L151.351 17.0895ZM137.36 14.9382C137.36 12.6785 139.233 11.1721 142.082 11.1721C144.931 11.1721 146.807 12.6785 146.807 14.9382H137.36Z" fill="white"/>
<path d="M127.189 7.92139C125.639 7.92139 124.089 8.71425 123.404 9.90356L123.33 10.0859V7.92139H119.076V25.9353H123.33V18.5854C123.33 14.6608 125.182 12.0654 127.912 12.0654H131.372V7.92139H127.189Z" fill="white"/>
<path d="M162.229 7.04651C157.832 7.04651 154.518 9.4859 153.907 13.1252H158.3C158.697 11.9755 160.247 11.1853 162.229 11.1853C164.572 11.1853 166.157 12.1209 166.157 13.5189V14.4519L161.041 15.0624C154.409 15.8553 153.147 18.5431 153.147 20.9481C153.147 24.3574 155.816 26.6198 159.85 26.6198C162.625 26.6198 165.141 25.3274 166.048 23.3901H166.12V25.9696H169.937V13.4238C169.892 9.59426 166.818 7.04651 162.229 7.04651ZM161.869 22.8034C159.274 23.1259 157.544 22.2986 157.544 20.7552C157.544 19.6795 158.229 18.5669 161.149 18.1731L166.12 17.4542V19.2487C166.12 21.0803 164.437 22.5154 161.869 22.8034Z" fill="white"/>
<path d="M41.3269 15.028C41.3269 10.2206 38.2981 7.03064 33.7906 7.03064C32.6943 7.04874 31.6177 7.32416 30.6477 7.83469C29.6776 8.34521 28.8414 9.07652 28.2064 9.96953L28.135 10.107V7.99264H23.8735V25.9247H28.1297V16.7142C28.1297 13.3789 30.111 11.1641 33.1054 11.1641C35.4862 11.1641 37.0733 12.7076 37.0733 15.0016L37.1104 25.9405H41.3666L41.3269 15.028Z" fill="white"/>
</g>
<defs>
<clipPath id="clip0_354_43">
<rect width="231" height="26.5082" fill="white" transform="translate(0 0.0983887)"/>
</clipPath>
</defs>
</svg>
