<svg width="176" height="84" viewBox="0 0 176 84" fill="none" xmlns="http://www.w3.org/2000/svg">
<g clip-path="url(#clip0_337_4)">
<path d="M133.365 83.997C156.553 83.997 175.35 65.1936 175.35 41.9985C175.35 18.8034 156.553 0 133.365 0C110.177 0 91.38 18.8034 91.38 41.9985C91.38 65.1936 110.177 83.997 133.365 83.997Z" fill="black"/>
<path d="M164.281 21.9782C157.413 11.605 146.82 6.0465 135.953 5.28473C135.595 5.26355 135.237 5.316 134.901 5.43883C134.564 5.56167 134.257 5.75227 133.997 5.99884C133.737 6.24542 133.53 6.54271 133.39 6.87234C133.25 7.20197 133.178 7.55692 133.181 7.91522V76.0817C133.178 76.44 133.25 76.7949 133.39 77.1246C133.53 77.4542 133.737 77.7515 133.997 77.9981C134.257 78.2447 134.564 78.4353 134.901 78.5581C135.237 78.6809 135.595 78.7334 135.953 78.7122C146.82 77.9504 157.413 72.3919 164.281 62.0187C168.195 56.0756 170.28 49.1151 170.28 41.9985C170.28 34.8818 168.195 27.9214 164.281 21.9782Z" fill="#FDFDFD"/>
<path d="M41.985 83.997C65.1727 83.997 83.97 65.1936 83.97 41.9985C83.97 18.8034 65.1727 0 41.985 0C18.7973 0 0 18.8034 0 41.9985C0 65.1936 18.7973 83.997 41.985 83.997Z" fill="black"/>
<path d="M78.1604 48.8842C80.3558 36.6394 76.5362 25.2991 69.2036 17.241C68.9597 16.9783 68.6646 16.7685 68.3363 16.6246C68.0081 16.4807 67.6539 16.4057 67.2955 16.4043C66.9372 16.4029 66.5824 16.4751 66.2531 16.6165C65.9238 16.7579 65.627 16.9654 65.3811 17.2261L18.3153 66.518C18.0664 66.7756 17.8729 67.0817 17.747 67.4171C17.6211 67.7525 17.5653 68.1103 17.5832 68.4682C17.601 68.826 17.6921 69.1764 17.8508 69.4977C18.0094 69.8189 18.2323 70.1041 18.5056 70.3358C26.8884 77.2929 38.3856 80.5929 50.5165 77.8374C57.4491 76.2427 63.7624 72.6503 68.6756 67.5045C73.5887 62.3586 76.8863 55.885 78.1604 48.8842Z" fill="#FDFDFD"/>
</g>
<defs>
<clipPath id="clip0_337_4">
<rect width="175.35" height="84" fill="white"/>
</clipPath>
</defs>
</svg>
